<svg xmlns="http://www.w3.org/2000/svg" width="31.863" height="39.232" viewBox="0 0 31.863 39.232">
    <defs>
        <style>
            .prefix__cls-1{fill:#293961}
        </style>
    </defs>
    <g id="prefix__bin" transform="translate(.003 .001)">
        <path id="prefix__Path_97" d="M223.317 154.7a.919.919 0 0 0-.919.919v17.365a.919.919 0 0 0 1.838 0v-17.362a.919.919 0 0 0-.919-.922zm0 0" class="prefix__cls-1" data-name="Path 97" transform="translate(-201.968 -140.491)"/>
        <path id="prefix__Path_98" d="M105.317 154.7a.919.919 0 0 0-.919.919v17.365a.919.919 0 0 0 1.838 0v-17.362a.919.919 0 0 0-.919-.922zm0 0" class="prefix__cls-1" data-name="Path 98" transform="translate(-94.809 -140.491)"/>
        <path id="prefix__Path_99" d="M2.606 11.678v22.637a5.069 5.069 0 0 0 1.348 3.5 4.525 4.525 0 0 0 3.283 1.415H24.62a4.523 4.523 0 0 0 3.28-1.419 5.069 5.069 0 0 0 1.348-3.5V11.678a3.51 3.51 0 0 0-.9-6.9h-4.7v-1.15A3.609 3.609 0 0 0 20.008 0h-8.159a3.609 3.609 0 0 0-3.638 3.628v1.148h-4.7a3.51 3.51 0 0 0-.9 6.9zM24.62 37.393H7.237a2.91 2.91 0 0 1-2.793-3.078V11.759h22.969v22.556a2.91 2.91 0 0 1-2.793 3.078zM10.048 3.628a1.77 1.77 0 0 1 1.8-1.792h8.158a1.77 1.77 0 0 1 1.8 1.792v1.148H10.048zM3.507 6.614H28.35a1.654 1.654 0 1 1 0 3.308H3.507a1.654 1.654 0 1 1 0-3.308zm0 0" class="prefix__cls-1" data-name="Path 99"/>
        <path id="prefix__Path_100" d="M164.317 154.7a.919.919 0 0 0-.919.919v17.365a.919.919 0 0 0 1.838 0v-17.362a.919.919 0 0 0-.919-.922zm0 0" class="prefix__cls-1" data-name="Path 100" transform="translate(-148.388 -140.491)"/>
    </g>
</svg>
