<svg xmlns="http://www.w3.org/2000/svg" width="40.979" height="31.215" viewBox="0 0 40.979 31.215">
    <g id="prefix__mail_1_" data-name="mail (1)" transform="translate(0 -61)">
        <g id="prefix__Group_3053" data-name="Group 3053" transform="translate(0 61)">
            <path id="prefix__Path_96" d="M37.378 61H3.6A3.608 3.608 0 0 0 0 64.6v24.013a3.608 3.608 0 0 0 3.6 3.6h33.778a3.608 3.608 0 0 0 3.6-3.6V64.6a3.608 3.608 0 0 0-3.6-3.6zm-.5 2.4L20.566 79.715 4.111 63.4zM2.4 88.116V65.087l11.565 11.465zm1.7 1.7l11.57-11.574 4.054 4.02a1.2 1.2 0 0 0 1.694 0l3.953-3.953L36.88 89.814zm34.479-1.7L27.07 76.607 38.578 65.1z" data-name="Path 96" transform="translate(0 -61)" style="fill:#293961"/>
        </g>
    </g>
</svg>
