<?xml version="1.0" encoding="utf-8"?>
<!-- Generator: Adobe Illustrator 24.2.1, SVG Export Plug-In . SVG Version: 6.00 Build 0)  -->
<svg version="1.1" id="Layer_1" xmlns="http://www.w3.org/2000/svg" xmlns:xlink="http://www.w3.org/1999/xlink" x="0px" y="0px"
	 viewBox="0 0 210.67 60.25" style="enable-background:new 0 0 210.67 60.25;" xml:space="preserve">
<style type="text/css">
	.st0{clip-path:url(#SVGID_2_);fill:#00D369;}
	.st1{clip-path:url(#SVGID_2_);fill:#293961;}
</style>
<g>
	<defs>
		<rect id="SVGID_1_" y="0" width="210.67" height="60.25"/>
	</defs>
	<clipPath id="SVGID_2_">
		<use xlink:href="#SVGID_1_"  style="overflow:visible;"/>
	</clipPath>
	<path class="st0" d="M35.3,21.02L21.08,0L3.34,21.52c-1.29,1.57-2.18,3.43-2.73,5.29c-0.51,1.72-0.7,3.51-0.57,5.28
		c0.18,2.55,1.02,5.07,2.52,7.3l7.7,11.4l6.4,9.47l17.78-21.47C38.64,33.71,38.97,26.5,35.3,21.02 M19.53,21.16l-0.03,0.45
		l-0.02,0.3c-0.29,2.52-1.58,4.73-3.47,6.23c-0.28,0.23-0.57,0.43-0.88,0.62c-0.01,0.01-0.02,0.01-0.03,0.02
		c-1.12,0.7-2.41,1.16-3.79,1.34v0.02c1.84,0.13,3.5,0.93,4.74,2.15c0.14,0.14,0.27,0.28,0.39,0.42c1.15,1.32,1.85,3.05,1.85,4.94
		v0.04c0,0.13,0,0.26-0.01,0.39c0,0.09,0,0.17-0.01,0.25l-0.03,0.39l-0.86,11.54l-6.81-10.06c0,0,0-0.04,0-0.04
		c0.01-0.07,0.09-1.58,0.16-2.58c0-0.01,0-0.01,0-0.02c0.01-0.05,0.01-0.1,0.01-0.16c0-0.02,0-0.05,0.01-0.08c0-0.07,0-0.14,0-0.21
		c0-2.75-2.18-5-4.91-5.1c-0.07,0-0.13,0-0.2,0H5.06l0.28-3.79h0.5c0.19,0,0.37-0.01,0.56-0.03c2.82-0.26,5.08-2.45,5.44-5.25v0
		c0.03-0.22,0.05-0.44,0.05-0.66l0.16-2.23l0.01-0.01L20.35,10L19.53,21.16z M29.83,35.14l-4.14,5.02l-3.17-4.69
		c-2.17-3.2-1.96-7.45,0.51-10.43l4.13-4.97l3.16,4.67C32.49,27.93,32.29,32.16,29.83,35.14"/>
	<path class="st1" d="M72.76,9.98l-0.89,11.09l-0.03,0.45l-0.02,0.3c-0.29,2.52-1.58,4.73-3.47,6.23c-0.28,0.22-0.57,0.43-0.88,0.62
		c-0.01,0.01-0.02,0.01-0.03,0.02c-1.12,0.7-2.41,1.16-3.79,1.34v0.02c1.84,0.13,3.5,0.93,4.74,2.15c0.14,0.13,0.27,0.27,0.39,0.42
		c1.15,1.33,1.85,3.05,1.85,4.94v0.04c0,0.13,0,0.26-0.01,0.39c0,0.09-0.01,0.17-0.01,0.25l-0.03,0.39l-0.73,11.59h-7.53
		c0,0,0.59-10.1,0.59-10.16C62.92,40,63,38.5,63.07,37.5c0-0.01,0-0.01,0-0.02c0-0.05,0.01-0.1,0.01-0.16c0-0.03,0-0.05,0-0.08
		c0-0.07,0.01-0.14,0.01-0.21c0-2.75-1.84-5-4.57-5.1c-0.07,0-0.68,0-0.74,0h-1.94l0,0.04l-1.38,18.27l-7.69,0.01l3-40.25h7.71
		c0,0-1.32,17.76-1.35,18.15h2.4c0,0,0.1,0,0.22-0.01c2.82-0.26,5.08-2.47,5.44-5.26c0.03-0.22,0.05-0.44,0.05-0.67l0.16-2.23
		l0.82-9.99H72.76z"/>
	<polygon class="st1" points="159.16,9.98 156.42,50.23 148.89,50.24 140.35,22.24 138.26,50.23 130.57,50.24 133.29,9.98 
		140.9,9.98 149.39,37.71 151.45,9.98 	"/>
	<path class="st1" d="M107.87,9.98L107.87,9.98l-3.78,0.01l-3,40.25l7.7-0.01l1.38-18.26l0-0.03h1.94c0.07,0,0.67,0,0.74,0
		c2.73,0.1,4.91,2.35,4.91,5.1c0,0.07,0,0.15,0,0.21c0,0.02-0.01,0.05-0.01,0.08c0,0.06-0.01,0.1-0.01,0.16c0,0.01,0,0.02,0,0.03
		c-0.07,1-0.15,2.51-0.16,2.58c0,0.06-0.6,10.16-0.6,10.16h7.53l0.73-11.6l0.03-0.39c0-0.08,0-0.17,0.01-0.25
		c0-0.13,0.01-0.26,0.01-0.39v-0.04c0-1.89-0.69-3.62-1.85-4.94c-0.12-0.14-0.25-0.28-0.39-0.42c-1.24-1.22-2.89-2.02-4.74-2.15
		v-0.02c1.38-0.17,2.67-0.64,3.79-1.34c0.01-0.01,0.02-0.01,0.03-0.02c0.31-0.19,0.6-0.4,0.88-0.62c1.89-1.5,3.18-3.72,3.47-6.23
		l0.02-0.3l0.03-0.45l0.18-2.24c0.38-4.77-3.39-8.86-8.18-8.86H107.87z M119.05,19.97l-0.16,2.23c0,0.22-0.02,0.44-0.05,0.67
		c-0.36,2.79-2.62,4.99-5.44,5.24c-0.18,0.02-0.37,0.03-0.56,0.03h-2.4c0.02-0.26,0.6-8.06,0.99-13.35h4.33c2,0,3.57,1.71,3.4,3.69
		L119.05,19.97z"/>
	<path class="st1" d="M210.67,45.37l0,0.04l-0.16,2.09l-0.2,2.75H196.6c-0.4,0-0.8-0.03-1.19-0.09c-3.95-0.58-6.97-3.85-7.01-7.89
		l-0.01-0.31l0.07-0.93l1.32-18.75l0.39-4.97l0.57-7.33h7.55l-0.01,0.07l-1.53,21.54l-0.55,7.38l-0.16,2.11
		C196.04,41.23,196,42,196,42.13v0.02c0,0.05-0.01,0.1-0.01,0.16c0,0.02,0,0.05,0,0.07c0,0.06,0,0.13,0.01,0.19
		c0.1,1.55,1.41,2.8,3.01,2.8h1.08H210.67z"/>
	<path class="st1" d="M173.13,14.86l-1,13.39h10.1l-0.3,3.45l-0.03,0.34h-10.02l-0.69,10.5v0.04c0.1,1.55,1.41,2.8,3.01,2.8h1.08
		h8.33l-0.16,2.13l-0.2,2.75h-11.45c-0.4,0-0.8-0.03-1.18-0.09c-3.95-0.58-6.97-3.85-7.02-7.89l-0.01-0.31v0l0.03-0.33l0.05-0.76
		c0.02-0.26,0.04-0.52,0.06-0.78l1.12-15.42l1.05-14.64l20.23-0.04l-0.35,4.86H173.13z"/>
	<path class="st1" d="M86.16,14.86l-1,13.39h10.1l-0.3,3.45l-0.03,0.34H84.91l-0.69,10.5v0.04c0.1,1.55,1.41,2.8,3.01,2.8h1.08h8.33
		l-0.16,2.13l-0.2,2.75H84.82c-0.4,0-0.8-0.03-1.18-0.09c-3.95-0.58-6.97-3.85-7.02-7.89l-0.01-0.31v0l0.03-0.33l0.05-0.76
		c0.02-0.26,0.04-0.52,0.06-0.78l1.12-15.42l1.05-14.64l20.22-0.04l-0.35,4.86H86.16z"/>
</g>
</svg>
