<svg xmlns="http://www.w3.org/2000/svg" width="17.979" height="17.979" viewBox="0 0 17.979 17.979">
    <defs>
        <style>
            .prefix__cls-1{fill:none;stroke:#3d3d3d;stroke-linecap:round;stroke-linejoin:round;stroke-width:1.5px}
        </style>
    </defs>
    <g id="prefix__settings" transform="translate(-.25 -.25)">
        <circle id="prefix__Ellipse_75" cx="2.247" cy="2.247" r="2.247" class="prefix__cls-1" data-name="Ellipse 75" transform="translate(6.992 6.992)"/>
        <path id="prefix__Path_70" d="M14.782 11.487a1.236 1.236 0 0 0 .247 1.363l.045.045a1.5 1.5 0 1 1-2.12 2.12l-.045-.045a1.246 1.246 0 0 0-2.112.884v.127a1.5 1.5 0 1 1-3 0v-.067a1.236 1.236 0 0 0-.809-1.131 1.236 1.236 0 0 0-1.363.247l-.045.045a1.5 1.5 0 1 1-2.12-2.12l.045-.045a1.246 1.246 0 0 0-.88-2.11H2.5a1.5 1.5 0 1 1 0-3h.067A1.236 1.236 0 0 0 3.7 6.992a1.236 1.236 0 0 0-.247-1.363L3.4 5.584a1.5 1.5 0 1 1 2.12-2.12l.045.045a1.236 1.236 0 0 0 1.363.247h.06a1.236 1.236 0 0 0 .749-1.131V2.5a1.5 1.5 0 1 1 3 0v.067a1.246 1.246 0 0 0 2.112.884l.045-.045a1.5 1.5 0 1 1 2.12 2.12l-.045.045a1.236 1.236 0 0 0-.247 1.363v.06a1.236 1.236 0 0 0 1.131.749h.127a1.5 1.5 0 1 1 0 3h-.067a1.236 1.236 0 0 0-1.131.744z" class="prefix__cls-1" data-name="Path 70"/>
    </g>
</svg>
