<?xml version="1.0" encoding="iso-8859-1"?>
<!-- Generator: Adobe Illustrator 19.0.0, SVG Export Plug-In . SVG Version: 6.00 Build 0)  -->
<svg xmlns="http://www.w3.org/2000/svg" width="10" height="40" viewBox="0 0 10 40" fill="none">
	<path d="M4.99718 31.9849C2.76917 31.9849 0.960938 33.7803 0.960938 35.9925C0.960938 38.2046 2.76917 40 4.99718 40C7.22518 40 9.03342 38.2046 9.03342 35.9925C9.03342 33.7803 7.22796 31.9849 4.99718 31.9849Z" fill="#EB5757"/>
	<path d="M1.29202 1.55693C0.344889 2.59627 -0.115241 3.98814 0.0246399 5.38014L2.31458 28.111C2.3818 28.7949 2.96302 29.3132 3.65461 29.3132H6.34539C7.03697 29.3132 7.61542 28.7949 7.68542 28.111L9.97536 5.38014C10.1152 3.98814 9.65511 2.59627 8.70798 1.55693C6.81095 -0.518978 3.18375 -0.518978 1.29202 1.55693Z" fill="#EB5757"/>
</svg>
